<svg width="16" height="16" viewBox="0 0 16 16" fill="none" xmlns="http://www.w3.org/2000/svg">
<path d="M12.381 11.5845C12.381 11.7956 12.2972 11.9981 12.1479 12.1474C11.9987 12.2967 11.7962 12.3805 11.5852 12.3805H4.41743C4.20636 12.3805 4.00393 12.2967 3.85468 12.1474C3.70543 11.9981 3.62159 11.7956 3.62159 11.5845V4.42326C3.62159 4.21215 3.70543 4.00969 3.85468 3.86042C4.00393 3.71114 4.20636 3.62728 4.41743 3.62728H7.71001C7.83234 3.62728 7.9497 3.57885 8.03644 3.49258C8.12319 3.40631 8.17226 3.2892 8.17295 3.16685V1.46043C8.17226 1.33807 8.12319 1.22097 8.03644 1.1347C7.9497 1.04843 7.83234 1 7.71001 1H3.17685C2.89111 0.99966 2.6081 1.05566 2.344 1.16479C2.07991 1.27392 1.83992 1.43405 1.63774 1.63602C1.43557 1.83799 1.27518 2.07784 1.16575 2.34185C1.05632 2.60586 1 2.88886 1 3.17466V12.8253C1 13.1111 1.05632 13.3941 1.16575 13.6581C1.27518 13.9222 1.43557 14.162 1.63774 14.364C1.83992 14.5659 2.07991 14.7261 2.344 14.8352C2.6081 14.9443 2.89111 15.0003 3.17685 15H12.8231C13.1089 15.0003 13.3919 14.9443 13.656 14.8352C13.9201 14.7261 14.1601 14.5659 14.3623 14.364C14.5644 14.162 14.7248 13.9222 14.8342 13.6581C14.9437 13.3941 15 13.1111 15 12.8253V10.8952C15 10.774 14.9522 10.6577 14.867 10.5715C14.7818 10.4853 14.666 10.4362 14.5449 10.4348H12.8414C12.7193 10.4348 12.6022 10.4833 12.5158 10.5696C12.4295 10.656 12.381 10.7731 12.381 10.8952V11.5845Z" fill="#EC682E"/>
<path d="M11.5643 3.7522C11.6701 3.7522 11.7749 3.7741 11.8726 3.81664C11.9702 3.85918 12.0588 3.92152 12.1333 4.00005C12.2078 4.07858 12.2666 4.17174 12.3063 4.27416C12.3461 4.37657 12.3661 4.48621 12.365 4.59672V9.51625C12.365 9.64455 12.4138 9.76759 12.5007 9.85831C12.5875 9.94903 12.7053 10 12.8282 10H14.5421C14.664 9.99856 14.7805 9.94696 14.8662 9.85639C14.9519 9.76583 15 9.6436 15 9.51625V3.28758C15 2.68088 14.7693 2.09902 14.3585 1.67002C13.9478 1.24101 13.3907 1 12.8099 1H9.46315C9.34031 1 9.22251 1.05097 9.13565 1.14169C9.0488 1.23241 9 1.35545 9 1.48375V3.26845C9 3.39675 9.0488 3.51979 9.13565 3.61051C9.22251 3.70123 9.34031 3.7522 9.46315 3.7522H11.5643Z" fill="#F8B529"/>
</svg>
