<svg id="Layer_1" data-name="Layer 1" xmlns="http://www.w3.org/2000/svg" viewBox="0 0 320.13 53.83"><defs><style>.cls-1{fill:#1e98d2;}.cls-2{fill:#154e88;}.cls-3{fill:#ec682e;}.cls-4{fill:#f8b529;}</style></defs><title>Procurement_Concierge_H_RGB</title><path class="cls-1" d="M101.67,34.07a41.16,41.16,0,0,1,6.09-.37A9.13,9.13,0,0,1,113.17,35a5,5,0,0,1,2,4.09,5.27,5.27,0,0,1-1.63,4,8.81,8.81,0,0,1-6,1.82,12.39,12.39,0,0,1-1.26-.07v5.55h-4.61Zm4.61,7.33a6.65,6.65,0,0,0,1.21.08c1.8,0,3.09-.82,3.09-2.32,0-1.21-.92-2-2.77-2a8.59,8.59,0,0,0-1.53.1Z" transform="translate(-30.92 -29.84)"/><path class="cls-1" d="M123.68,34.07a42.6,42.6,0,0,1,5.88-.37c2.78,0,4.63.4,5.92,1.31a4.28,4.28,0,0,1,1.72,3.65,4.39,4.39,0,0,1-3,4v.1a4.41,4.41,0,0,1,2.2,2.94c.57,1.7,1.14,4.14,1.46,4.78h-4.74a19,19,0,0,1-1.28-3.8c-.52-2-1.19-2.39-2.74-2.39h-.84v6.19h-4.62ZM128.3,41h1.38c1.83,0,2.91-.74,2.91-2s-.94-1.9-2.52-1.9a9.88,9.88,0,0,0-1.77.1Z" transform="translate(-30.92 -29.84)"/><path class="cls-1" d="M154,50.78c-5.48,0-8.81-3.68-8.81-8.47,0-5.08,3.65-8.75,9.11-8.75,5.62,0,9,3.62,9,8.51s-3.53,8.71-9.23,8.71Zm.25-3.6c2.54,0,4-2.13,4-5s-1.58-5-4.07-5-4.07,2.17-4.07,5,1.58,5,4.07,5Z" transform="translate(-30.92 -29.84)"/><path class="cls-1" d="M185.78,50a12.39,12.39,0,0,1-4.74.79c-6.74,0-9.75-3.88-9.75-8.34,0-5.77,4.54-8.88,10-8.88a11.32,11.32,0,0,1,4.77.84l-1,3.6a9.39,9.39,0,0,0-3.62-.69c-2.79,0-5.26,1.5-5.26,4.81,0,2.86,2,4.86,5.38,4.86a10.48,10.48,0,0,0,3.48-.57Z" transform="translate(-30.92 -29.84)"/><path class="cls-1" d="M199.25,33.85v9c0,2.62,1,4.3,3.09,4.3s3.08-1.56,3.08-4.3v-9h4.66v8.91c0,5.43-2.88,8-7.94,8-4.76,0-7.55-2.42-7.55-8.14V33.85Z" transform="translate(-30.92 -29.84)"/><path class="cls-1" d="M219.42,34.07a42.44,42.44,0,0,1,5.87-.37c2.79,0,4.64.4,5.92,1.31a4.28,4.28,0,0,1,1.73,3.65,4.39,4.39,0,0,1-3,4v.1a4.36,4.36,0,0,1,2.19,2.94c.57,1.7,1.14,4.14,1.46,4.78h-4.74a19.75,19.75,0,0,1-1.28-3.8c-.52-2-1.18-2.39-2.74-2.39H224v6.19h-4.61ZM224,41h1.38c1.83,0,2.92-.74,2.92-2s-.94-1.9-2.52-1.9a10,10,0,0,0-1.78.1Z" transform="translate(-30.92 -29.84)"/><path class="cls-1" d="M253.23,43.89h-6.76v2.84H254v3.75H241.8V33.85h11.85V37.6h-7.18v2.54h6.76Z" transform="translate(-30.92 -29.84)"/><path class="cls-1" d="M278.1,44.29c-.05-2.07-.07-4.37-.07-7.26H278c-.6,2.37-1.39,5-2,7.09l-1.8,6H270.4l-1.48-6c-.49-2-1-4.64-1.48-7.11h-.05c-.09,2.55-.17,5.19-.24,7.26l-.25,6.19h-4.39l.94-16.63h6.66l1.11,4.2c.47,1.77,1,4.07,1.36,6.16h.1c.54-2.09,1.15-4.56,1.67-6.21l1.31-4.15h6.49l.76,16.63h-4.63Z" transform="translate(-30.92 -29.84)"/><path class="cls-1" d="M303.43,43.89h-6.76v2.84h7.55v3.75H292V33.85h11.85V37.6h-7.18v2.54h6.76Z" transform="translate(-30.92 -29.84)"/><path class="cls-1" d="M313,50.48V33.85h5.84l2.74,4.81a47.58,47.58,0,0,1,2.94,6.3h.07a54.66,54.66,0,0,1-.32-6.77V33.85h4.32V50.48h-5.11l-3-5.5c-1.06-1.92-2.24-4.17-3.21-6.44h-.09c.12,2.52.14,4.93.14,7.45v4.49Z" transform="translate(-30.92 -29.84)"/><path class="cls-1" d="M341.61,37.65h-4.69v-3.8h14.14v3.8h-4.79V50.48h-4.66Z" transform="translate(-30.92 -29.84)"/><path class="cls-2" d="M119,79.39a15.66,15.66,0,0,1-5.79.91c-8.24,0-11.92-4.47-11.92-9.63,0-6.66,5.55-10.25,12.22-10.25a14.52,14.52,0,0,1,5.83,1l-1.18,4.16a12.28,12.28,0,0,0-4.44-.8c-3.41,0-6.43,1.74-6.43,5.55,0,3.31,2.39,5.62,6.58,5.62a13.51,13.51,0,0,0,4.26-.66Z" transform="translate(-30.92 -29.84)"/><path class="cls-2" d="M140.6,80.3c-6.7,0-10.77-4.24-10.77-9.77,0-5.87,4.46-10.11,11.13-10.11,6.89,0,11,4.19,11,9.83,0,5.81-4.32,10-11.29,10Zm.3-4.16c3.11,0,4.95-2.45,4.95-5.75s-1.93-5.81-5-5.81-5,2.5-5,5.81,1.94,5.75,5,5.75Z" transform="translate(-30.92 -29.84)"/><path class="cls-2" d="M164.67,80V60.76h7.15l3.35,5.55a54,54,0,0,1,3.59,7.27h.09a58.59,58.59,0,0,1-.39-7.81v-5h5.28V80h-6.25l-3.68-6.35a78.2,78.2,0,0,1-3.92-7.44h-.12c.15,2.91.18,5.7.18,8.61V80Z" transform="translate(-30.92 -29.84)"/><path class="cls-2" d="M214.2,79.39a15.71,15.71,0,0,1-5.79.91c-8.24,0-11.92-4.47-11.92-9.63,0-6.66,5.55-10.25,12.22-10.25a14.46,14.46,0,0,1,5.82,1l-1.17,4.16a12.28,12.28,0,0,0-4.44-.8c-3.41,0-6.43,1.74-6.43,5.55,0,3.31,2.39,5.62,6.58,5.62a13.51,13.51,0,0,0,4.26-.66Z" transform="translate(-30.92 -29.84)"/><path class="cls-2" d="M232.8,60.76V80h-5.7V60.76Z" transform="translate(-30.92 -29.84)"/><path class="cls-2" d="M260.3,72.35H252v3.28h9.24V80H246.33V60.76h14.48v4.33H252V68h8.27Z" transform="translate(-30.92 -29.84)"/><path class="cls-2" d="M274.07,61a53.19,53.19,0,0,1,7.19-.43c3.41,0,5.67.45,7.24,1.51a4.82,4.82,0,0,1,2.11,4.21A5.13,5.13,0,0,1,287,70.93V71c1.36.55,2.11,1.8,2.69,3.39.69,2,1.38,4.79,1.78,5.53h-5.8a22.29,22.29,0,0,1-1.57-4.39c-.63-2.3-1.45-2.76-3.35-2.76h-1V80h-5.65Zm5.65,8h1.69c2.23,0,3.56-.85,3.56-2.31s-1.15-2.19-3.08-2.19a14.14,14.14,0,0,0-2.17.11Z" transform="translate(-30.92 -29.84)"/><path class="cls-2" d="M322.82,78.94A28.89,28.89,0,0,1,315,80.16c-4.47,0-7.52-1-9.51-2.82a8.7,8.7,0,0,1-3-6.64c0-6.64,5.58-10.14,12.83-10.14a18,18,0,0,1,6.7,1l-1.21,4.22a14.6,14.6,0,0,0-5.67-.94c-3.57,0-6.64,1.65-6.64,5.33,0,3.42,2.71,5.67,6.64,5.67a8.47,8.47,0,0,0,2.11-.2V72.58H314.1V68.45h8.72Z" transform="translate(-30.92 -29.84)"/><path class="cls-2" d="M350.06,72.35h-8.28v3.28H351V80H336.08V60.76h14.49v4.33h-8.79V68h8.28Z" transform="translate(-30.92 -29.84)"/><path class="cls-3" d="M74.68,70.53a3.06,3.06,0,0,1-3.06,3.06H44.06A3.06,3.06,0,0,1,41,70.53V43a3.06,3.06,0,0,1,3.06-3.06H56.72a1.78,1.78,0,0,0,1.78-1.77V31.61a1.78,1.78,0,0,0-1.78-1.77H39.29a8.36,8.36,0,0,0-8.37,8.36V75.3a8.36,8.36,0,0,0,8.37,8.36H76.38a8.36,8.36,0,0,0,8.37-8.36V67.88A1.77,1.77,0,0,0,83,66.11H76.45a1.77,1.77,0,0,0-1.77,1.77Z" transform="translate(-30.92 -29.84)"/><path class="cls-4" d="M71.62,39.91A3.06,3.06,0,0,1,74.68,43V61a1.77,1.77,0,0,0,1.77,1.77H83A1.77,1.77,0,0,0,84.75,61V38.21a8.37,8.37,0,0,0-8.37-8.37H63.59a1.77,1.77,0,0,0-1.77,1.77v6.53a1.77,1.77,0,0,0,1.77,1.77Z" transform="translate(-30.92 -29.84)"/></svg>